#!OML:ASF E:\emotionWalksFemale\Project 1\Capture day 1\Session 1\Female1.ASF
:FULLY-SPECIFIED
:DEGREES
1431
root 7.577 15.4387 -31.7498 181.92 -21.8504 -179.248
lowerback 8.65753 0.807051 1.79626
upperback -3.51064 1.38765 1.82216
thorax -8.59213 0.607398 0.70356
lowerneck -5.47231 -2.0257 -4.00652
upperneck 2.32228 -2.54572 3.2508
head 1.77616 -1.23797 1.63956
rclavicle -1.35422e-015 -3.18055e-015
rhumerus -38.8928 -10.7428 -72.2037
rradius 31.5509
rwrist 20.239
rhand -17.8503 -55.6717
rfingers 7.12502
rthumb 8.4148 274.516
lclavicle -1.35422e-015 -3.18055e-015
lhumerus -38.7799 -1.37685 84.0012
lradius 40.7831
lwrist -11.4062
lhand -8.97262 -34.3148
lfingers 7.12502
lthumb 16.9728 -5.03634
rfemur -14.6847 0.208538 19.9372
rtibia 38.7033
rfoot -22.8732 -24.5549
rtoes -0.942282
lfemur -9.79015 -5.86916 -29.0877
ltibia 27.0067
lfoot -25.0489 36.2353
ltoes -12.4362
1432
root 7.59276 15.4311 -31.7777 181.889 -22.1404 -179.423
lowerback 8.75874 0.791484 1.57374
upperback -3.56254 1.33961 1.70965
thorax -8.70933 0.594039 0.715519
lowerneck -5.33017 -2.43246 -4.50018
upperneck 2.36347 -3.08036 3.75268
head 1.80951 -1.49995 1.87408
rclavicle 1.6524e-014 3.97569e-015
rhumerus -39.4492 -10.8394 -71.9858
rradius 31.4786
rwrist 20.5657
rhand -17.0536 -55.3942
rfingers 7.12502
rthumb 9.18365 274.826
lclavicle 1.6524e-014 3.97569e-015
lhumerus -38.5586 -1.72249 84.1589
lradius 40.9476
lwrist -11.0104
lhand -9.6185 -34.7319
lfingers 7.12502
lthumb 16.351 -5.40115
rfemur -14.6197 0.691554 19.7707
rtibia 38.154
rfoot -21.9594 -24.4971
rtoes 2.61156
lfemur -9.57539 -6.06014 -29.1982
ltibia 26.9578
lfoot -24.7955 36.2825
ltoes -14.6796
1433
root 7.60318 15.4224 -31.8007 181.879 -22.4051 -179.525
lowerback 8.59023 0.735829 1.37898
upperback -3.46296 1.23718 1.70938
thorax -8.50634 0.557685 0.842513
lowerneck -5.35964 -2.80701 -5.01866
upperneck 2.32102 -3.55862 4.14802
head 1.8476 -1.73504 2.08046
rclavicle -1.35422e-014 8.74653e-015
rhumerus -39.621 -10.7473 -71.8066
rradius 31.2903
rwrist 21.3051
rhand -15.6674 -55.5075
rfingers 7.12502
rthumb 10.521 274.776
lclavicle -1.35422e-014 8.74653e-015
lhumerus -38.0748 -1.68213 84.3343
lradius 41.133
lwrist -10.6075
lhand -9.94325 -34.994
lfingers 7.12502
lthumb 16.0383 -5.63778
rfemur -14.5469 0.783037 19.6956
rtibia 37.7118
rfoot -21.3236 -24.4845
rtoes 6.46172
lfemur -9.37347 -6.36956 -29.2677
ltibia 26.8841
lfoot -24.7654 36.4003
ltoes -15.5681
1434
root 7.61799 15.4172 -31.8229 181.951 -22.6528 -179.75
lowerback 8.43848 0.723832 1.05716
upperback -3.37641 1.17772 1.65326
thorax -8.32859 0.547511 0.974333
lowerneck -5.49229 -3.235 -5.54648
upperneck 2.38974 -4.1028 4.50212
head 1.94874 -2.00293 2.27236
rclavicle -2.05742e-014 -1.27222e-014
rhumerus -39.8219 -10.5611 -71.7985
rradius 31.2853
rwrist 21.378
rhand -14.9175 -55.7897
rfingers 7.12502
rthumb 11.2444 274.532
lclavicle -2.05742e-014 -1.27222e-014
lhumerus -37.6671 -1.92127 84.6147
lradius 41.7357
lwrist -9.75904
lhand -9.35509 -34.5231
lfingers 7.12502
lthumb 16.6046 -5.21344
rfemur -14.425 0.783206 19.6041
rtibia 37.3651
rfoot -21.248 -25.2418
rtoes 7.50109
lfemur -9.25278 -6.62353 -29.4211
ltibia 26.852
lfoot -24.8377 36.4225
ltoes -15.581
1435
root 7.62915 15.4168 -31.8427 181.963 -22.9487 -180.065
lowerback 8.52255 0.668447 0.821645
upperback -3.44436 1.06822 1.44858
thorax -8.44953 0.502801 0.906108
lowerneck -5.19434 -3.58926 -5.98177
upperneck 2.43301 -4.58366 4.98214
head 1.967 -2.24065 2.49717
rclavicle -3.2638e-014 2.34566e-014
rhumerus -40.3502 -10.3279 -71.9521
rradius 31.4655
rwrist 21.3744
rhand -14.0212 -56.1115
rfingers 7.12502
rthumb 12.1086 274.259
lclavicle -3.2638e-014 2.34566e-014
lhumerus -37.5899 -2.41811 84.78
lradius 42.2679
lwrist -8.89835
lhand -9.01458 -34.2462
lfingers 7.12502
lthumb 16.9324 -4.96425
rfemur -14.1701 0.61705 19.4399
rtibia 37.2052
rfoot -21.4666 -26.2684
rtoes 7.48783
lfemur -9.01167 -6.80465 -29.6759
ltibia 26.8271
lfoot -25.1078 36.1542
ltoes -15.6248
1436
root 7.65315 15.419 -31.8843 181.639 -23.1363 -179.884
lowerback 8.13459 0.630065 0.49903
upperback -3.1372 0.979988 1.56132
thorax -7.89907 0.482303 1.22264
lowerneck -5.06737 -3.94423 -6.36049
upperneck 2.20038 -5.0491 5.32803
head 1.92234 -2.47107 2.66668
rclavicle 1.35422e-015 2.82274e-014
rhumerus -40.2342 -9.99979 -72.1701
rradius 31.5984
rwrist 21.14
rhand -13.0008 -56.5444
rfingers 7.12502
rthumb 13.0924 273.887
lclavicle 1.35422e-015 2.82274e-014
lhumerus -37.0665 -2.50229 84.9226
lradius 42.5306
lwrist -8.45796
lhand -9.24732 -34.5156
lfingers 7.12502
lthumb 16.7084 -5.21463
rfemur -13.7233 0.764456 19.938
rtibia 37.1185
rfoot -21.9157 -26.9489
rtoes 9.11043
lfemur -8.65637 -6.78152 -29.3567
ltibia 26.8562
lfoot -25.4194 35.7777
ltoes -15.9585
1437
root 7.66712 15.4098 -31.9051 181.774 -23.4218 -180.125
lowerback 7.90335 0.537091 0.207573
upperback -3.13511 0.814452 1.44209
thorax -7.76141 0.414181 1.28633
lowerneck -4.75586 -4.44078 -6.76559
upperneck 2.12496 -5.71611 5.6343
head 1.91287 -2.80562 2.82295
rclavicle 2.3233e-015 -9.93923e-015
rhumerus -40.4297 -9.7404 -72.3279
rradius 31.8226
rwrist 21.2516
rhand -12.2888 -56.9198
rfingers 7.12502
rthumb 13.7787 273.557
lclavicle 2.3233e-015 -9.93923e-015
lhumerus -36.9831 -2.62427 84.9753
lradius 42.8592
lwrist -7.9404
lhand -9.42085 -34.9212
lfingers 7.12502
lthumb 16.5413 -5.6062
rfemur -13.5546 0.162666 19.9173
rtibia 37.0748
rfoot -22.2835 -26.9443
rtoes 9.59958
lfemur -8.67283 -6.69385 -29.4898
ltibia 26.9374
lfoot -25.1998 35.5219
ltoes -17.1075
1438
root 7.68385 15.3996 -31.9252 181.776 -23.6559 -180.259
lowerback 8.01267 0.519598 0.108589
upperback -3.22116 0.774742 1.31475
thorax -7.91568 0.397411 1.21304
lowerneck -4.23108 -4.74126 -7.23914
upperneck 1.76565 -6.13532 6.169
head 1.77194 -3.01713 3.08749
rclavicle 9.69075e-015 -3.1408e-014
rhumerus -40.8888 -9.68183 -72.3117
rradius 32.0399
rwrist 21.9482
rhand -11.8517 -56.7867
rfingers 7.12502
rthumb 14.1999 273.719
lclavicle 9.69075e-015 -3.1408e-014
lhumerus -36.9399 -3.09671 85.167
lradius 43.0586
lwrist -7.24521
lhand -9.48928 -35.2624
lfingers 7.12502
lthumb 16.4754 -5.94191
rfemur -13.2607 -0.219584 20.0142
rtibia 36.9378
rfoot -22.842 -27.4752
rtoes 9.69895
lfemur -8.61867 -6.65695 -29.5152
ltibia 27.0406
lfoot -25.0648 35.3113
ltoes -17.886
1439
root 7.7036 15.3944 -31.9425 181.713 -23.8387 -180.244
lowerback 8.23257 0.484364 0.136442
upperback -3.36982 0.724741 1.18509
thorax -8.20024 0.368516 1.06712
lowerneck -3.7932 -5.03154 -7.46952
upperneck 1.65428 -6.55103 6.49535
head 1.71221 -3.22853 3.23542
rclavicle 1.38652e-014 1.15295e-014
rhumerus -41.4296 -9.55211 -72.4683
rradius 32.1102
rwrist 22.5813
rhand -11.7479 -56.4099
rfingers 7.12502
rthumb 14.2999 274.102
lclavicle 1.38652e-014 1.15295e-014
lhumerus -37.0183 -3.42819 85.2221
lradius 43.3941
lwrist -6.84162
lhand -9.63446 -35.4424
lfingers 7.12502
lthumb 16.3356 -6.11042
rfemur -12.9755 -0.170739 20.2518
rtibia 36.6802
rfoot -23.5655 -28.213
rtoes 10.269
lfemur -8.57203 -6.72428 -29.3832
ltibia 27.1601
lfoot -25.1321 35.1129
ltoes -17.8202
